<?xml version="1.0" encoding="utf-8"?>
<!-- Generator: Adobe Illustrator 27.1.1, SVG Export Plug-In . SVG Version: 6.00 Build 0)  -->
<svg version="1.1" id="icon" xmlns="http://www.w3.org/2000/svg" xmlns:xlink="http://www.w3.org/1999/xlink" x="0px" y="0px"
	 viewBox="0 0 612 792" style="enable-background:new 0 0 612 792;" xml:space="preserve">
<style type="text/css">
	.st0{stroke:#000000;stroke-miterlimit:10;}
	.st1{fill:#FFCD2E;stroke:#000000;stroke-miterlimit:10;}
	.st2{fill:#FFCD2E;stroke:#000000;stroke-width:4;stroke-miterlimit:10;}
</style>
<path id="bback" class="st0" d="M541.96,519.61H87.43c-11.36,0-20.57-9.21-20.57-20.57V207.13c0-11.36,9.21-20.57,20.57-20.57
	h454.52c11.36,0,20.57,9.21,20.57,20.57v291.91C562.52,510.4,553.31,519.61,541.96,519.61z"/>
<rect id="cback" x="96.57" y="205.26" class="st1" width="436.26" height="295.65"/>
<polygon id="hex" class="st0" points="476.17,429.18 310.52,505.26 144.87,429.18 144.87,277 310.52,200.91 476.17,277 "/>
<path id="text3" class="st2" d="M187.53,327.55l58.91,0.04c-13.69,14.35-27.38,28.69-41.07,43.04c6.45,0.03,12.91,0.06,19.36,0.09
	c7.02-0.29,14.05-0.58,21.07-0.87c0.21,2.49,0.42,4.98,0.63,7.47l-61.73,0.87c14.95-14.76,29.9-29.52,44.85-44.28
	c-6.79-0.13-13.82-0.14-21.07,0c-7.58,0.15-14.9,0.45-21.95,0.87C186.87,332.37,187.2,329.96,187.53,327.55z M262.61,327.55
	l4.07,4.97v41.14l-4.07,4.54h18.88l-3.5-4.18v-41.06l4.82-5.4H262.61z M310.46,378.19l-4.39-7.8l-0.88-37.25l20.91,45
	c3.13,0.16,6.25,0.32,9.38,0.47c1.99-6.89,4.31-14.13,7.02-21.65c2.96-8.21,6.08-15.87,9.22-22.95l-0.77,39.56l-5.37,4.61h21.51
	l-5.01-4.61v-40.51l5.01-5.52h-23.27c0.29,1.72,0.59,3.44,0.88,5.17c-4.53,11.02-9.06,22.03-13.59,33.05l-15.91-33.01l4.92-5.21
	h-22.83c0.15,2.59,0.29,5.18,0.44,7.77c0.72,6.73,0.65,12.22,0.44,16.02c-0.15,2.74-0.54,6.05-1.32,12.56
	c-0.3,2.53-1.43,11.98-1.76,14.73C300.22,378.48,305.34,378.34,310.46,378.19z M395.49,377.44L395.49,377.44
	c-0.3-5.91-0.42-6.61-0.42-6.61c-0.69-4.17-2.01-4.61-1.76-6.93c0.16-1.47,0.9-3.26,3.07-5.2c4.83,3.32,9.66,6.64,14.49,9.96
	c4.39-2.74,8.78-5.49,13.17-8.23c0.9,4.39,1.8,8.79,2.7,13.18l-7.76,4.58h25.69l-5.73-4.58l-25.87-46.07h-6.59
	c0,0-4.39,9.5-17.12,29.35c-12.73,19.85-16.68,21.29-16.68,21.29L395.49,377.44z M401.09,352.24l11.08,8.68l8.1-6.15l-10.23-19.09
	L401.09,352.24z"/>
</svg>
