<?xml version="1.0" encoding="utf-8"?>
<!-- Generator: Adobe Illustrator 27.1.1, SVG Export Plug-In . SVG Version: 6.00 Build 0)  -->
<svg version="1.1" id="messdice" xmlns="http://www.w3.org/2000/svg" xmlns:xlink="http://www.w3.org/1999/xlink" x="0px" y="0px"
	 viewBox="0 0 612 792" style="enable-background:new 0 0 612 792;" xml:space="preserve">
<style type="text/css">
	.st0{stroke:#000000;stroke-miterlimit:10;}
	.st1{fill:#FFF200;stroke:#000000;stroke-miterlimit:10;}
	.st2{fill:#BE1E2D;stroke:#000000;stroke-width:4;stroke-miterlimit:10;}
</style>
<polygon id="backd" class="st0" points="554.35,462.74 310.96,603.26 67.57,462.74 67.57,181.7 310.96,41.17 554.35,181.7 "/>
<path id="mess" class="st1" d="M520.27,482.41c0,0-86.7-76.72-71.05-103.68c15.65-26.96,35.65-60.87-7.83-79.13
	S318.43,342.22,306,289.17s103.22-91.3,42.35-128.7s-70.45,49.54-133.91,11.3s-25.73-60.02-25.73-60.02s63.99,47.85,154.43,7.85
	S330.09,290.91,364,282.22c33.91-8.7,126.09-44.35,133.91-7.83c7.83,36.52-14.78,104.09-20,121.61
	c-5.22,17.52,49.08,82.53,49.08,82.53L520.27,482.41z M101.65,482.41c0,0,53.66-26.28,71.92-122.81S235.3,210.91,264,253.52
	s25.22,132.16,68.7,106.95s65.22-88.25,54.78-121.94s-17.39-125.87,26.96-96.31s109.57,21.96,109.57,21.96s-83.48-35-103.48-44.57
	s-177.68-48.03-129.28,14.68s64.06,185.95,37.97,156.5c-26.09-29.45-95.65-122.49-120.87-101.62s-62.61,148.7-55.65,173.91
	c6.96,25.22-65.98,110.71-65.98,110.71L101.65,482.41z M101.2,162.72c0,0,86.7,76.72,71.05,103.68s-35.65,60.87,7.83,79.13
	s122.96-42.61,135.39,10.43c12.43,53.04-103.22,91.3-42.35,128.7s70.45-49.54,133.91-11.3s25.73,60.02,25.73,60.02
	s-63.99-47.85-154.43-7.85c-90.43,40,13.04-171.3-20.87-162.61s-126.09,44.35-133.91,7.83s14.78-104.09,20-121.61
	c5.22-17.52-49.08-82.53-49.08-82.53L101.2,162.72z M519.82,162.72c0,0-53.66,26.28-71.92,122.81
	c-18.26,96.52-61.74,148.7-90.43,106.09c-28.7-42.61-25.22-132.16-68.7-106.95c-43.48,25.21-65.22,88.25-54.78,121.94
	s17.39,125.87-26.96,96.31c-44.35-29.57-109.57-21.96-109.57-21.96s83.48,35,103.48,44.57c20,9.57,177.68,48.03,129.28-14.68
	s-64.06-185.95-37.97-156.5c26.09,29.45,95.65,122.49,120.87,101.62c25.22-20.87,62.61-148.7,55.65-173.91
	c-6.96-25.22,65.98-110.71,65.98-110.71L519.82,162.72z"/>
<path id="text6" class="st2" d="M137.52,152.36l99.62,50.83c-38.16,17.65-76.31,35.3-114.47,52.95
	c10.89,5.63,21.77,11.25,32.66,16.88c12.19,5.46,24.37,10.92,36.56,16.38c-2.25,5.29-4.49,10.59-6.74,15.88L79.81,253.86
	c40.72-17.41,81.45-34.83,122.17-52.24c-11.34-6.12-23.23-12.19-35.65-18.16c-12.97-6.23-25.67-11.92-38.04-17.14
	C131.37,161.67,134.45,157.01,137.52,152.36z M264.53,217.04l1.7,13.71l-43,84.43l-11.63,5.8l31.94,16.27l-1.56-11.6l42.92-84.27
	l13.8-6.94L264.53,217.04z M292.55,362.21l0.72-19.78l37.45-77.2l-11.66,110.38c5.12,3.02,10.25,6.03,15.37,9.05
	c10.56-12.42,22.05-25.28,34.52-38.39c13.6-14.3,26.87-27.33,39.59-39.17l-42.66,80.53l-13.91,4.84l36.39,18.53l-3.65-13.79
	l42.34-83.14l14.24-7.02l-39.36-20.05c-1.31,3.79-2.61,7.57-3.92,11.36c-19.18,18.71-38.36,37.42-57.55,56.12l7.59-81.46l13.77-6.45
	l-38.62-19.67c-2.46,5.44-4.92,10.88-7.37,16.32c-5.81,14.44-11.67,25.63-16.01,33.27c-3.12,5.49-7.24,11.95-15.36,24.64
	c-3.15,4.93-14.94,23.37-18.36,28.71C274.92,353.98,283.74,358.09,292.55,362.21z M437.18,433.93L437.18,433.93
	c5.67-12.4,6.21-13.93,6.21-13.93c3.19-9.15,1.42-11.18,4.27-15.74c1.81-2.89,4.94-5.92,10.63-8.02c4.7,10.98,9.4,21.95,14.1,32.93
	c10.29-1.85,20.59-3.69,30.88-5.54c-3.07,9.79-6.14,19.59-9.21,29.38l-17.91,2.71l43.47,22.14l-4.92-14.33l4.38-116.84L507.94,341
	c0,0-17.36,15.71-59.64,45.48c-42.29,29.77-50.48,29.33-50.48,29.33L437.18,433.93z M473.01,387.03l9.67,27.35l20.13-5.65l2.64-48
	L473.01,387.03z"/>
</svg>
