<?xml version="1.0" encoding="utf-8"?>
<!-- Generator: Adobe Illustrator 27.1.1, SVG Export Plug-In . SVG Version: 6.00 Build 0)  -->
<svg version="1.1" id="tri" xmlns="http://www.w3.org/2000/svg" xmlns:xlink="http://www.w3.org/1999/xlink" x="0px" y="0px"
	 viewBox="0 0 612 792" style="enable-background:new 0 0 612 792;" xml:space="preserve">
<style type="text/css">
	.st0{stroke:#000000;stroke-miterlimit:10;}
	.st1{fill:#FFDE17;}
	.st2{fill:#FFCD2D;stroke:#000000;stroke-width:4;stroke-miterlimit:10;}
</style>
<polygon id="utriangle" class="st0" points="333,30.91 14.43,524.55 590.09,524.55 "/>
<polyline id="rtriangle" class="st1" points="590.09,99.81 71.44,104.11 308.54,650.04 "/>
<path id="text4" class="st2" d="M152.39,333.08l75.72,0.05c-17.6,20.21-35.2,40.42-52.79,60.63c8.3,0.04,16.59,0.09,24.89,0.13
	c9.03-0.41,18.06-0.81,27.09-1.22c0.27,3.51,0.54,7.02,0.81,10.52l-79.35,1.22c19.22-20.79,38.44-41.59,57.66-62.38
	c-8.72-0.18-17.76-0.2-27.09,0c-9.74,0.21-19.15,0.63-28.22,1.22C151.54,339.87,151.96,336.48,152.39,333.08z M248.89,333.08l5.24,7
	v57.95l-5.24,6.39h24.27l-4.5-5.89V340.7l6.2-7.61H248.89z M310.41,404.42l-5.64-10.98l-1.13-52.47l26.88,63.39
	c4.02,0.22,8.04,0.44,12.06,0.67c2.55-9.7,5.54-19.9,9.03-30.5c3.81-11.57,7.81-22.35,11.85-32.33l-0.99,55.73l-6.91,6.5h27.65
	l-6.44-6.5v-57.06l6.44-7.78H353.3c0.38,2.43,0.75,4.85,1.13,7.28c-5.83,15.52-11.65,31.04-17.48,46.56l-20.45-46.5l6.33-7.33
	h-29.35c0.19,3.65,0.38,7.29,0.56,10.94c0.93,9.48,0.84,17.21,0.56,22.57c-0.19,3.86-0.7,8.52-1.69,17.69
	c-0.39,3.56-1.84,16.88-2.26,20.74C297.24,404.83,303.82,404.62,310.41,404.42z M419.7,403.36L419.7,403.36
	c-0.39-8.33-0.54-9.31-0.54-9.32c-0.88-5.87-2.58-6.49-2.26-9.76c0.2-2.08,1.16-4.6,3.95-7.32c6.21,4.68,12.42,9.35,18.62,14.03
	c5.64-3.86,11.29-7.73,16.93-11.59c1.16,6.19,2.31,12.38,3.47,18.57l-9.97,6.44h33.03l-7.37-6.44l-33.26-64.89h-8.47
	c0,0-5.64,13.38-22.01,41.34c-16.37,27.96-21.44,30-21.44,30L419.7,403.36z M426.91,367.86l14.24,12.22l10.41-8.67l-13.15-26.89
	L426.91,367.86z"/>
</svg>
